It takes a tragedy to teach the young businessman Ian to put love ahead of work and open up to his musician girlfriend Samantha. 

CAST:

Jennifer Love Hewitt.........Samantha Andrews
Paul Nicholls................Ian Wyndham
Tom Wilkinson................Taxi Driver
Diana Hardcastle.............Claire
Lucy Davenport...............Lottie
Roy Sampson..................Dunbar
Kevin Moore..................Hotel Employee
Neville Phillips.............Concert MC
Ben Ridgeway.................Teenage Boy
Teo-Wa Vuong.................Enniko
Terence Harvey...............Trahem
Al Wilde.....................Oliver
Danny Babington..............Nigel
Stewart Wright...............Mike
Graham Turner................Richard 

General
*******
Format                           : AVI
Format/Info                      : Audio Video Interleave
File size                        : 921 MiB
Duration                         : 1h 31mn
Overall bit rate                 : 1 403 Kbps

Video
*****
ID                               : 0
Format                           : MPEG-4 Visual
Format profile                   : Simple@L3
Format settings, BVOP            : No
Format settings, QPel            : No
Format settings, GMC             : No warppoints
Format settings, Matrix          : Default (H.263)
Codec ID                         : XVID
Codec ID/Hint                    : XviD
Duration                         : 1h 31mn
Bit rate                         : 1 200 Kbps
Width                            : 720 pixels
Height                           : 400 pixels
Display aspect ratio             : 16:9
Frame rate                       : 23.976 fps
Resolution                       : 8 bits
Colorimetry                      : 4:2:0
Scan type                        : Progressive
Bits/(Pixel*Frame)               : 0.174
Stream size                      : 788 MiB (86%)
Writing library                  : XviD 1.1.2 (UTC 2006-11-01)

Audio
*****
ID                               : 1
Format                           : AC-3
Format/Info                      : Audio Coding 3
Format profile                   : Dolby Digital
Codec ID                         : 2000
Duration                         : 1h 31mn
Bit rate mode                    : Constant
Bit rate                         : 192 Kbps
Channel(s)                       : 2 channels
Channel positions                : Front: L R
Sampling rate                    : 48.0 KHz
Stream size                      : 126 MiB (14%)


